<svg width="100%" height="100%" id="svg" viewBox="0 0 1440 700" xmlns="http://www.w3.org/2000/svg" class="transition duration-300 ease-in-out delay-150"><defs><linearGradient id="gradient" x1="18%" y1="88%" x2="82%" y2="12%"><stop offset="5%" stop-color="#519832"></stop><stop offset="95%" stop-color="#519832"></stop></linearGradient></defs><path d="M 0,700 C 0,700 0,175 0,175 C 112.96428571428572,160.42857142857144 225.92857142857144,145.85714285714286 342,150 C 458.07142857142856,154.14285714285714 577.2500000000001,177 697,169 C 816.7499999999999,161 937.0714285714284,122.14285714285715 1061,118 C 1184.9285714285716,113.85714285714285 1312.4642857142858,144.42857142857142 1440,175 C 1440,175 1440,700 1440,700 Z" stroke="none" stroke-width="0" fill="url(#gradient)" fill-opacity="0.4" class="transition-all duration-300 ease-in-out delay-150 path-0"></path><defs><linearGradient id="gradient" x1="18%" y1="88%" x2="82%" y2="12%"><stop offset="5%" stop-color="#519832"></stop><stop offset="95%" stop-color="#519832"></stop></linearGradient></defs><path d="M 0,700 C 0,700 0,350 0,350 C 109.07142857142858,389.6428571428571 218.14285714285717,429.2857142857143 344,411 C 469.85714285714283,392.7142857142857 612.5000000000001,316.5 723,299 C 833.4999999999999,281.5 911.8571428571427,322.7142857142857 1026,341 C 1140.1428571428573,359.2857142857143 1290.0714285714287,354.6428571428571 1440,350 C 1440,350 1440,700 1440,700 Z" stroke="none" stroke-width="0" fill="url(#gradient)" fill-opacity="0.53" class="transition-all duration-300 ease-in-out delay-150 path-1"></path><defs><linearGradient id="gradient" x1="18%" y1="88%" x2="82%" y2="12%"><stop offset="5%" stop-color="#519832"></stop><stop offset="95%" stop-color="#519832"></stop></linearGradient></defs><path d="M 0,700 C 0,700 0,525 0,525 C 119.14285714285714,541.6785714285714 238.28571428571428,558.3571428571429 369,569 C 499.7142857142857,579.6428571428571 641.9999999999999,584.25 749,582 C 856.0000000000001,579.75 927.7142857142858,570.6428571428571 1037,560 C 1146.2857142857142,549.3571428571429 1293.142857142857,537.1785714285714 1440,525 C 1440,525 1440,700 1440,700 Z" stroke="none" stroke-width="0" fill="url(#gradient)" fill-opacity="1" class="transition-all duration-300 ease-in-out delay-150 path-2"></path></svg>
