<svg width="560" height="418" viewBox="0 0 560 418" fill="none" xmlns="http://www.w3.org/2000/svg">
<g clip-path="url(#clip0_667_409)">
<g opacity="0.6">
<path d="M386.441 232.066H327.129C325.029 232.066 323.326 233.774 323.326 235.88V248.54C323.326 250.647 325.029 252.355 327.129 252.355H386.441C388.541 252.355 390.244 250.647 390.244 248.54V235.88C390.244 233.774 388.541 232.066 386.441 232.066Z" fill="#F2F2F2"/>
<path d="M456.472 252.355H397.16C395.059 252.355 393.356 254.063 393.356 256.169V268.829C393.356 270.936 395.059 272.644 397.16 272.644H456.472C458.572 272.644 460.275 270.936 460.275 268.829V256.169C460.275 254.063 458.572 252.355 456.472 252.355Z" fill="#F2F2F2"/>
<path d="M526.507 272.649H467.196C465.095 272.649 463.392 274.357 463.392 276.463V289.123C463.392 291.23 465.095 292.938 467.196 292.938H526.507C528.608 292.938 530.311 291.23 530.311 289.123V276.463C530.311 274.357 528.608 272.649 526.507 272.649Z" fill="#F2F2F2"/>
<path d="M386.441 201.628H327.129C325.029 201.628 323.326 203.336 323.326 205.442V218.102C323.326 220.209 325.029 221.917 327.129 221.917H386.441C388.541 221.917 390.244 220.209 390.244 218.102V205.442C390.244 203.336 388.541 201.628 386.441 201.628Z" fill="#F2F2F2"/>
<path d="M456.472 221.921H397.16C395.059 221.921 393.356 223.629 393.356 225.736V238.396C393.356 240.502 395.059 242.21 397.16 242.21H456.472C458.572 242.21 460.275 240.502 460.275 238.396V225.736C460.275 223.629 458.572 221.921 456.472 221.921Z" fill="#F2F2F2"/>
<path d="M526.507 242.21H467.196C465.095 242.21 463.392 243.918 463.392 246.025V258.685C463.392 260.791 465.095 262.499 467.196 262.499H526.507C528.608 262.499 530.311 260.791 530.311 258.685V246.025C530.311 243.918 528.608 242.21 526.507 242.21Z" fill="#F2F2F2"/>
<path d="M386.441 161.05H327.129C325.029 161.05 323.326 162.758 323.326 164.865V177.525C323.326 179.631 325.029 181.339 327.129 181.339H386.441C388.541 181.339 390.244 179.631 390.244 177.525V164.865C390.244 162.758 388.541 161.05 386.441 161.05Z" fill="#F2F2F2"/>
<path d="M456.472 181.339H397.16C395.059 181.339 393.356 183.047 393.356 185.153V197.813C393.356 199.92 395.059 201.628 397.16 201.628H456.472C458.572 201.628 460.275 199.92 460.275 197.813V185.153C460.275 183.047 458.572 181.339 456.472 181.339Z" fill="#F2F2F2"/>
<path d="M526.507 201.628H467.196C465.095 201.628 463.392 203.336 463.392 205.442V218.102C463.392 220.209 465.095 221.917 467.196 221.917H526.507C528.608 221.917 530.311 220.209 530.311 218.102V205.442C530.311 203.336 528.608 201.628 526.507 201.628Z" fill="#F2F2F2"/>
<path d="M386.441 130.612H327.129C325.029 130.612 323.326 132.32 323.326 134.426V147.086C323.326 149.193 325.029 150.901 327.129 150.901H386.441C388.541 150.901 390.244 149.193 390.244 147.086V134.426C390.244 132.32 388.541 130.612 386.441 130.612Z" fill="#F2F2F2"/>
<path d="M456.472 150.9H397.16C395.059 150.9 393.356 152.608 393.356 154.715V167.375C393.356 169.481 395.059 171.189 397.16 171.189H456.472C458.572 171.189 460.275 169.481 460.275 167.375V154.715C460.275 152.608 458.572 150.9 456.472 150.9Z" fill="#F2F2F2"/>
<path d="M526.507 171.194H467.196C465.095 171.194 463.392 172.902 463.392 175.009V187.669C463.392 189.775 465.095 191.483 467.196 191.483H526.507C528.608 191.483 530.311 189.775 530.311 187.669V175.009C530.311 172.902 528.608 171.194 526.507 171.194Z" fill="#F2F2F2"/>
<path opacity="0.1" d="M386.441 232.066H327.129C325.029 232.066 323.326 233.774 323.326 235.88V248.54C323.326 250.647 325.029 252.355 327.129 252.355H386.441C388.541 252.355 390.244 250.647 390.244 248.54V235.88C390.244 233.774 388.541 232.066 386.441 232.066Z" fill="#519832"/>
<path opacity="0.1" d="M456.472 252.355H397.16C395.059 252.355 393.356 254.063 393.356 256.169V268.829C393.356 270.936 395.059 272.644 397.16 272.644H456.472C458.572 272.644 460.275 270.936 460.275 268.829V256.169C460.275 254.063 458.572 252.355 456.472 252.355Z" fill="#519832"/>
<path opacity="0.1" d="M526.507 272.649H467.196C465.095 272.649 463.392 274.357 463.392 276.463V289.123C463.392 291.23 465.095 292.938 467.196 292.938H526.507C528.608 292.938 530.311 291.23 530.311 289.123V276.463C530.311 274.357 528.608 272.649 526.507 272.649Z" fill="#519832"/>
<path opacity="0.1" d="M386.441 201.628H327.129C325.029 201.628 323.326 203.336 323.326 205.442V218.102C323.326 220.209 325.029 221.917 327.129 221.917H386.441C388.541 221.917 390.244 220.209 390.244 218.102V205.442C390.244 203.336 388.541 201.628 386.441 201.628Z" fill="#519832"/>
<path opacity="0.1" d="M456.472 221.921H397.16C395.059 221.921 393.356 223.629 393.356 225.736V238.396C393.356 240.502 395.059 242.21 397.16 242.21H456.472C458.572 242.21 460.275 240.502 460.275 238.396V225.736C460.275 223.629 458.572 221.921 456.472 221.921Z" fill="#519832"/>
<path opacity="0.1" d="M526.507 242.21H467.196C465.095 242.21 463.392 243.918 463.392 246.025V258.685C463.392 260.791 465.095 262.499 467.196 262.499H526.507C528.608 262.499 530.311 260.791 530.311 258.685V246.025C530.311 243.918 528.608 242.21 526.507 242.21Z" fill="#519832"/>
<path opacity="0.1" d="M386.441 161.05H327.129C325.029 161.05 323.326 162.758 323.326 164.865V177.525C323.326 179.631 325.029 181.339 327.129 181.339H386.441C388.541 181.339 390.244 179.631 390.244 177.525V164.865C390.244 162.758 388.541 161.05 386.441 161.05Z" fill="#519832"/>
<path opacity="0.1" d="M456.472 181.339H397.16C395.059 181.339 393.356 183.047 393.356 185.153V197.813C393.356 199.92 395.059 201.628 397.16 201.628H456.472C458.572 201.628 460.275 199.92 460.275 197.813V185.153C460.275 183.047 458.572 181.339 456.472 181.339Z" fill="#519832"/>
<path opacity="0.1" d="M526.507 201.628H467.196C465.095 201.628 463.392 203.336 463.392 205.442V218.102C463.392 220.209 465.095 221.917 467.196 221.917H526.507C528.608 221.917 530.311 220.209 530.311 218.102V205.442C530.311 203.336 528.608 201.628 526.507 201.628Z" fill="#519832"/>
<path opacity="0.1" d="M386.441 130.612H327.129C325.029 130.612 323.326 132.32 323.326 134.426V147.086C323.326 149.193 325.029 150.901 327.129 150.901H386.441C388.541 150.901 390.244 149.193 390.244 147.086V134.426C390.244 132.32 388.541 130.612 386.441 130.612Z" fill="#519832"/>
<path opacity="0.1" d="M456.472 150.9H397.16C395.059 150.9 393.356 152.608 393.356 154.715V167.375C393.356 169.481 395.059 171.189 397.16 171.189H456.472C458.572 171.189 460.275 169.481 460.275 167.375V154.715C460.275 152.608 458.572 150.9 456.472 150.9Z" fill="#519832"/>
<path opacity="0.1" d="M526.507 171.194H467.196C465.095 171.194 463.392 172.902 463.392 175.009V187.669C463.392 189.775 465.095 191.483 467.196 191.483H526.507C528.608 191.483 530.311 189.775 530.311 187.669V175.009C530.311 172.902 528.608 171.194 526.507 171.194Z" fill="#519832"/>
</g>
<g opacity="0.6">
<path d="M124.357 102.181H65.045C62.9445 102.181 61.2417 103.888 61.2417 105.995V118.655C61.2417 120.762 62.9445 122.469 65.045 122.469H124.357C126.457 122.469 128.16 120.762 128.16 118.655V105.995C128.16 103.888 126.457 102.181 124.357 102.181Z" fill="#F2F2F2"/>
<path d="M194.388 122.47H135.076C132.975 122.47 131.272 124.178 131.272 126.284V138.944C131.272 141.051 132.975 142.759 135.076 142.759H194.388C196.488 142.759 198.191 141.051 198.191 138.944V126.284C198.191 124.178 196.488 122.47 194.388 122.47Z" fill="#F2F2F2"/>
<path d="M264.423 142.764H205.112C203.011 142.764 201.308 144.471 201.308 146.578V159.238C201.308 161.345 203.011 163.052 205.112 163.052H264.423C266.524 163.052 268.227 161.345 268.227 159.238V146.578C268.227 144.471 266.524 142.764 264.423 142.764Z" fill="#F2F2F2"/>
<path d="M124.357 71.7427H65.045C62.9445 71.7427 61.2417 73.4504 61.2417 75.5571V88.217C61.2417 90.3237 62.9445 92.0315 65.045 92.0315H124.357C126.457 92.0315 128.16 90.3237 128.16 88.217V75.5571C128.16 73.4504 126.457 71.7427 124.357 71.7427Z" fill="#F2F2F2"/>
<path d="M194.388 92.0366H135.076C132.975 92.0366 131.272 93.7444 131.272 95.851V108.511C131.272 110.618 132.975 112.325 135.076 112.325H194.388C196.488 112.325 198.191 110.618 198.191 108.511V95.851C198.191 93.7444 196.488 92.0366 194.388 92.0366Z" fill="#F2F2F2"/>
<path d="M264.423 112.325H205.112C203.011 112.325 201.308 114.033 201.308 116.14V128.8C201.308 130.906 203.011 132.614 205.112 132.614H264.423C266.524 132.614 268.227 130.906 268.227 128.8V116.14C268.227 114.033 266.524 112.325 264.423 112.325Z" fill="#F2F2F2"/>
<path d="M124.357 31.165H65.045C62.9445 31.165 61.2417 32.8728 61.2417 34.9795V47.6394C61.2417 49.7461 62.9445 51.4538 65.045 51.4538H124.357C126.457 51.4538 128.16 49.7461 128.16 47.6394V34.9795C128.16 32.8728 126.457 31.165 124.357 31.165Z" fill="#F2F2F2"/>
<path d="M194.388 51.4536H135.076C132.975 51.4536 131.272 53.1614 131.272 55.268V67.928C131.272 70.0346 132.975 71.7424 135.076 71.7424H194.388C196.488 71.7424 198.191 70.0346 198.191 67.928V55.268C198.191 53.1614 196.488 51.4536 194.388 51.4536Z" fill="#F2F2F2"/>
<path d="M264.423 71.7427H205.112C203.011 71.7427 201.308 73.4504 201.308 75.5571V88.217C201.308 90.3237 203.011 92.0315 205.112 92.0315H264.423C266.524 92.0315 268.227 90.3237 268.227 88.217V75.5571C268.227 73.4504 266.524 71.7427 264.423 71.7427Z" fill="#F2F2F2"/>
<path d="M124.357 0.726562H65.045C62.9445 0.726562 61.2417 2.43433 61.2417 4.54098V17.2009C61.2417 19.3076 62.9445 21.0154 65.045 21.0154H124.357C126.457 21.0154 128.16 19.3076 128.16 17.2009V4.54098C128.16 2.43433 126.457 0.726562 124.357 0.726562Z" fill="#F2F2F2"/>
<path d="M194.388 21.0151H135.076C132.975 21.0151 131.272 22.7229 131.272 24.8296V37.4895C131.272 39.5962 132.975 41.3039 135.076 41.3039H194.388C196.488 41.3039 198.191 39.5962 198.191 37.4895V24.8296C198.191 22.7229 196.488 21.0151 194.388 21.0151Z" fill="#F2F2F2"/>
<path d="M264.423 41.3091H205.112C203.011 41.3091 201.308 43.0169 201.308 45.1235V57.7835C201.308 59.8901 203.011 61.5979 205.112 61.5979H264.423C266.524 61.5979 268.227 59.8901 268.227 57.7835V45.1235C268.227 43.0169 266.524 41.3091 264.423 41.3091Z" fill="#F2F2F2"/>
<path opacity="0.1" d="M124.357 102.181H65.045C62.9445 102.181 61.2417 103.888 61.2417 105.995V118.655C61.2417 120.762 62.9445 122.469 65.045 122.469H124.357C126.457 122.469 128.16 120.762 128.16 118.655V105.995C128.16 103.888 126.457 102.181 124.357 102.181Z" fill="#519832"/>
<path opacity="0.1" d="M194.388 122.47H135.076C132.975 122.47 131.272 124.178 131.272 126.284V138.944C131.272 141.051 132.975 142.759 135.076 142.759H194.388C196.488 142.759 198.191 141.051 198.191 138.944V126.284C198.191 124.178 196.488 122.47 194.388 122.47Z" fill="#519832"/>
<path opacity="0.1" d="M264.423 142.764H205.112C203.011 142.764 201.308 144.471 201.308 146.578V159.238C201.308 161.345 203.011 163.052 205.112 163.052H264.423C266.524 163.052 268.227 161.345 268.227 159.238V146.578C268.227 144.471 266.524 142.764 264.423 142.764Z" fill="#519832"/>
<path opacity="0.1" d="M124.357 71.7427H65.045C62.9445 71.7427 61.2417 73.4504 61.2417 75.5571V88.217C61.2417 90.3237 62.9445 92.0315 65.045 92.0315H124.357C126.457 92.0315 128.16 90.3237 128.16 88.217V75.5571C128.16 73.4504 126.457 71.7427 124.357 71.7427Z" fill="#519832"/>
<path opacity="0.1" d="M194.388 92.0366H135.076C132.975 92.0366 131.272 93.7444 131.272 95.851V108.511C131.272 110.618 132.975 112.325 135.076 112.325H194.388C196.488 112.325 198.191 110.618 198.191 108.511V95.851C198.191 93.7444 196.488 92.0366 194.388 92.0366Z" fill="#519832"/>
<path opacity="0.1" d="M264.423 112.325H205.112C203.011 112.325 201.308 114.033 201.308 116.14V128.8C201.308 130.906 203.011 132.614 205.112 132.614H264.423C266.524 132.614 268.227 130.906 268.227 128.8V116.14C268.227 114.033 266.524 112.325 264.423 112.325Z" fill="#519832"/>
<path opacity="0.1" d="M124.357 31.165H65.045C62.9445 31.165 61.2417 32.8728 61.2417 34.9795V47.6394C61.2417 49.7461 62.9445 51.4538 65.045 51.4538H124.357C126.457 51.4538 128.16 49.7461 128.16 47.6394V34.9795C128.16 32.8728 126.457 31.165 124.357 31.165Z" fill="#519832"/>
<path opacity="0.1" d="M194.388 51.4536H135.076C132.975 51.4536 131.272 53.1614 131.272 55.268V67.928C131.272 70.0346 132.975 71.7424 135.076 71.7424H194.388C196.488 71.7424 198.191 70.0346 198.191 67.928V55.268C198.191 53.1614 196.488 51.4536 194.388 51.4536Z" fill="#519832"/>
<path opacity="0.1" d="M264.423 71.7427H205.112C203.011 71.7427 201.308 73.4504 201.308 75.5571V88.217C201.308 90.3237 203.011 92.0315 205.112 92.0315H264.423C266.524 92.0315 268.227 90.3237 268.227 88.217V75.5571C268.227 73.4504 266.524 71.7427 264.423 71.7427Z" fill="#519832"/>
<path opacity="0.1" d="M124.357 0.726562H65.045C62.9445 0.726562 61.2417 2.43433 61.2417 4.54098V17.2009C61.2417 19.3076 62.9445 21.0154 65.045 21.0154H124.357C126.457 21.0154 128.16 19.3076 128.16 17.2009V4.54098C128.16 2.43433 126.457 0.726562 124.357 0.726562Z" fill="#519832"/>
<path opacity="0.1" d="M194.388 21.0151H135.076C132.975 21.0151 131.272 22.7229 131.272 24.8296V37.4895C131.272 39.5962 132.975 41.3039 135.076 41.3039H194.388C196.488 41.3039 198.191 39.5962 198.191 37.4895V24.8296C198.191 22.7229 196.488 21.0151 194.388 21.0151Z" fill="#519832"/>
<path opacity="0.1" d="M264.423 41.3091H205.112C203.011 41.3091 201.308 43.0169 201.308 45.1235V57.7835C201.308 59.8901 203.011 61.5979 205.112 61.5979H264.423C266.524 61.5979 268.227 59.8901 268.227 57.7835V45.1235C268.227 43.0169 266.524 41.3091 264.423 41.3091Z" fill="#519832"/>
</g>
<g opacity="0.15">
<path d="M151.318 284.215C151.325 287.125 151.027 290.028 150.427 292.876C150.314 293.389 150.192 293.938 150.069 294.452C146.91 307.168 137.988 316.47 127.346 317.04C126.993 317.04 126.635 317.071 126.266 317.071C115.005 317.071 105.494 307.317 102.356 293.928C102.264 293.569 102.187 293.214 102.11 292.855C101.511 290.008 101.212 287.105 101.22 284.194C101.22 266.026 112.43 251.338 126.266 251.338C140.102 251.338 151.318 266.046 151.318 284.215Z" fill="#3F3D56"/>
<path opacity="0.1" d="M151.318 284.215C151.326 287.125 151.027 290.028 150.427 292.876C150.314 293.389 150.192 293.938 150.069 294.452C149.69 294.452 149.321 294.452 148.948 294.405C146.192 294.254 143.453 293.878 140.758 293.281C138.368 294.02 135.926 294.579 133.453 294.955C131.556 295.233 129.646 295.404 127.73 295.468C127.085 295.468 126.44 295.504 125.795 295.504C123.501 295.503 121.21 295.35 118.936 295.047C115.266 294.55 111.661 293.652 108.187 292.367C106.282 292.996 104.342 293.511 102.377 293.907C102.285 293.548 102.208 293.194 102.131 292.834C101.531 289.987 101.232 287.084 101.24 284.174C101.24 266.005 112.45 251.317 126.287 251.317C140.123 251.317 151.318 266.046 151.318 284.215Z" fill="black"/>
<path d="M204.753 222.953C204.764 214.96 202.897 207.077 199.302 199.944L169.843 209.128L195.698 193.881C191.363 187.596 185.675 182.368 179.055 178.583C172.435 174.799 165.051 172.554 157.45 172.016C156.242 170.174 154.917 168.413 153.483 166.743L111.135 179.953L145.836 159.489C139.199 154.39 131.412 151.007 123.163 149.641C114.914 148.275 106.457 148.967 98.5379 151.657C90.6189 154.346 83.4821 158.95 77.7577 165.061C72.0333 171.173 67.8976 178.604 65.7157 186.698L101.962 228.544L62.5881 200.041C52.6313 207.124 45.5428 217.559 42.614 229.444C39.6852 241.33 41.111 253.875 46.6317 264.794C52.1524 275.714 61.4006 284.281 72.6914 288.935C83.9823 293.589 96.5644 294.02 108.146 290.15C118.631 294.011 130.087 294.326 140.768 291.048C148.21 292.698 155.926 292.652 163.347 290.914C170.769 289.176 177.707 285.79 183.651 281.005C189.594 276.221 194.392 270.16 197.69 263.269C200.988 256.378 202.702 248.832 202.706 241.189C202.706 240.054 202.665 238.93 202.593 237.811C204.039 232.992 204.767 227.985 204.753 222.953Z" fill="#519832"/>
<path opacity="0.1" d="M203.878 232.425C188.32 229.467 172.366 229.264 156.739 231.824C139.053 234.761 120.973 241.214 103.672 236.496C93.521 233.724 84.732 227.317 74.8271 223.764C65.2585 220.406 54.9474 219.782 45.0457 221.962C41.269 231.015 40.1715 240.967 41.8845 250.628C43.5974 260.29 48.0484 269.252 54.7053 276.444C61.3621 283.636 69.9433 288.753 79.4228 291.183C88.9024 293.614 98.8793 293.255 108.161 290.15C118.641 294.007 130.092 294.323 140.768 291.048C148.21 292.698 155.925 292.652 163.347 290.914C170.769 289.176 177.707 285.79 183.651 281.005C189.594 276.22 194.392 270.159 197.69 263.268C200.987 256.377 202.702 248.832 202.706 241.188C202.706 240.054 202.665 238.93 202.593 237.81C203.119 236.04 203.548 234.242 203.878 232.425Z" fill="#519832"/>
</g>
<path opacity="0.15" d="M280 410.969C434.64 410.969 560 388.099 560 359.887C560 331.676 434.64 308.806 280 308.806C125.36 308.806 0 331.676 0 359.887C0 388.099 125.36 410.969 280 410.969Z" fill="#519832"/>
<path d="M371.975 365.776C372.352 364.232 373.099 362.803 374.152 361.615C375.205 360.427 376.531 359.515 378.016 358.958C379.5 358.401 381.098 358.217 382.67 358.421C384.242 358.625 385.74 359.211 387.035 360.128L387.434 360.421C395.998 366.859 390.915 378.667 387.434 378.934C383.953 379.201 377.258 379.488 377.258 379.488C377.258 379.488 369.37 376.223 371.975 365.776Z" fill="#192534"/>
<path d="M449.239 357.752V359.898C449.239 359.898 414.431 362.311 410.714 362.311H403.758C403.758 362.311 403.656 362.418 403.487 362.614C403.2 362.937 402.714 363.507 402.176 364.215C401.081 365.642 399.776 367.634 399.474 369.287C398.962 372.239 397.068 373.312 397.068 373.312L390.111 371.439L383.4 363.389L382.423 362.444L379.638 359.78L377.258 357.495L377.376 356.212V356.017C377.945 353.259 378.673 350.537 379.556 347.864C379.556 347.792 379.602 347.715 379.628 347.643C381.558 341.832 384.777 334.773 389.415 332.673C389.768 332.514 390.137 332.36 390.531 332.221L391.002 332.057C399.898 329.069 416.709 330.255 416.709 330.255C416.709 330.255 429.547 334.013 430.622 335.625C431.697 337.237 443.864 350.513 443.864 350.513C444.932 351.321 445.916 352.234 446.802 353.239C447.944 354.507 449.003 356.104 449.239 357.752Z" fill="#519832"/>
<path opacity="0.1" d="M376.198 375.464C378.268 375.464 379.945 372.82 379.945 369.56C379.945 366.299 378.268 363.656 376.198 363.656C374.129 363.656 372.451 366.299 372.451 369.56C372.451 372.82 374.129 375.464 376.198 375.464Z" fill="white"/>
<path opacity="0.1" d="M391.718 334.675C391.718 334.675 388.647 339.399 385.402 345.456C385.4 345.472 385.4 345.487 385.402 345.503C384.537 347.115 383.656 348.814 382.817 350.554L382.781 350.636C382.781 350.636 381.005 349.225 379.607 347.849C379.607 347.777 379.653 347.7 379.679 347.628C381.609 341.817 384.828 334.758 389.466 332.658C389.819 332.499 390.188 332.345 390.582 332.206L391.718 334.675Z" fill="black"/>
<path opacity="0.1" d="M382.622 350.508C382.622 350.508 401.618 356.155 405.36 353.727C405.36 353.727 406.701 336.554 397.871 335.481C397.871 335.481 392.788 334.136 391.729 334.968C390.669 335.799 382.622 350.508 382.622 350.508Z" fill="white"/>
<path opacity="0.1" d="M407.234 337.894C407.234 337.894 410.981 352.115 413.658 352.387C416.335 352.659 443.347 352.115 442.282 350.236C441.218 348.357 429.439 336.287 429.439 336.287L407.234 337.894Z" fill="white"/>
<path d="M402.637 363.625C402.637 363.625 407.5 357.213 416.064 363.656C424.627 370.099 419.539 381.901 416.064 382.168C412.588 382.435 405.923 382.707 405.923 382.707C405.923 382.707 395.363 378.354 402.637 363.625Z" fill="#192534"/>
<path d="M453.144 365.258C452.788 364.244 452.226 363.316 451.494 362.531C450.762 361.747 449.875 361.123 448.891 360.7C447.906 360.276 446.844 360.062 445.773 360.071C444.702 360.079 443.644 360.311 442.666 360.75C441.71 361.202 440.804 361.755 439.963 362.398C432.341 368.127 436.892 378.636 439.963 378.878C441.074 378.96 442.554 379.047 443.992 379.124C445.465 379.202 446.935 378.937 448.288 378.349C449.641 377.761 450.84 376.865 451.789 375.734C452.739 374.602 453.414 373.265 453.761 371.828C454.108 370.39 454.118 368.892 453.789 367.45C453.616 366.707 453.401 365.975 453.144 365.258Z" fill="#192534"/>
<path opacity="0.1" d="M404.828 378.682C406.897 378.682 408.575 376.039 408.575 372.778C408.575 369.518 406.897 366.875 404.828 366.875C402.758 366.875 401.081 369.518 401.081 372.778C401.081 376.039 402.758 378.682 404.828 378.682Z" fill="white"/>
<path opacity="0.1" d="M415.26 361.51C415.26 361.51 414.748 353.727 423.02 356.946C431.292 360.165 425.963 363.656 425.963 363.656L415.26 361.51Z" fill="white"/>
<path opacity="0.1" d="M449.239 357.752V358.825L447.903 359.338L445.174 358.825C445.174 358.825 444.591 354.43 446.828 353.178C447.944 354.507 449.003 356.104 449.239 357.752Z" fill="white"/>
<path opacity="0.1" d="M449.239 357.803V359.897C449.239 359.897 414.431 362.31 410.714 362.31H410.684C408.759 361.284 406.834 360.827 405.217 361.51C404.724 361.714 404.261 361.983 403.84 362.31C403.717 362.408 403.599 362.511 403.487 362.613C402.976 363.082 402.535 363.622 402.176 364.215C399.781 368.101 400.293 374.118 400.293 374.118C393.336 376.264 386.113 370.632 386.113 370.632C384.803 366.69 383.58 364.117 382.459 362.418C381.435 360.878 380.503 360.123 379.674 359.754L377.258 357.495L377.376 356.211L396.791 370.37C396.791 370.37 398.665 358.296 402.934 359.102C407.203 359.908 415.777 359.908 415.777 359.908L449.239 357.803Z" fill="black"/>
<path d="M376.198 356.14C376.198 356.14 374.591 360.165 376.198 360.437C377.805 360.709 381.414 357.356 386.098 371.438C386.098 371.438 393.321 377.086 400.277 374.924C400.277 374.924 399.448 364.729 405.217 362.31C410.986 359.892 420.609 371.972 420.609 371.972V374.657L443.352 372.239C443.352 372.239 450.309 366.874 450.042 358.558L415.797 360.704C415.797 360.704 407.234 360.704 402.954 359.898C398.675 359.092 396.812 371.192 396.812 371.192L376.198 356.14Z" fill="#519832"/>
<path d="M279.887 282.752H279.882C271.978 282.752 265.57 289.179 265.57 297.106V297.111C265.57 305.039 271.978 311.465 279.882 311.465H279.887C287.792 311.465 294.2 305.039 294.2 297.111V297.106C294.2 289.179 287.792 282.752 279.887 282.752Z" fill="#192534"/>
<path d="M272.388 334.054C274.308 332.365 276.258 330.645 277.64 328.494C278.91 326.523 279.657 324.269 280.358 322.031C282.361 315.634 284.086 309.157 285.533 302.599C277.656 301.393 271.774 294.416 264.07 292.368C263.886 292.316 257.994 327.822 257.564 331.066C257.211 333.746 254.16 346.545 257.636 346.617C259.494 346.658 263.374 341.996 264.746 340.769L272.388 334.054Z" fill="#3F3D56"/>
<path opacity="0.1" d="M272.388 334.054C274.308 332.365 276.258 330.645 277.64 328.494C278.91 326.523 279.657 324.269 280.358 322.031C282.361 315.634 284.086 309.157 285.533 302.599C277.656 301.393 271.774 294.416 264.07 292.368C263.886 292.316 257.994 327.822 257.564 331.066C257.211 333.746 254.16 346.545 257.636 346.617C259.494 346.658 263.374 341.996 264.746 340.769L272.388 334.054Z" fill="black"/>
<path d="M175.033 244.469C174.163 244.603 173.242 244.67 172.525 245.178C171.501 245.896 171.24 247.231 170.754 248.392C170.115 249.881 169.034 251.136 167.657 251.985C166.485 252.704 165.057 253.186 164.355 254.367C163.959 255.163 163.771 256.046 163.808 256.934C163.715 259.565 163.833 262.198 164.161 264.809C164.325 266.119 164.54 267.453 164.268 268.742C163.956 270.246 163.014 271.524 162.118 272.772C159.969 275.755 157.865 279.03 157.691 282.706C157.604 284.554 158.013 286.448 157.547 288.24C156.723 291.418 153.365 293.492 152.71 296.706C152.516 297.656 152.567 298.662 152.198 299.55C151.553 301.09 149.777 301.932 149.321 303.518C148.978 304.709 149.48 305.967 149.516 307.204C149.567 309.017 148.62 310.69 147.709 312.251L142.38 321.338C140.65 324.285 138.879 327.365 138.587 330.774C138.326 333.797 139.263 336.79 140.292 339.645C142.58 345.985 145.979 352.7 152.249 355.139C155.94 356.576 160.05 356.268 163.997 355.94C169.403 355.493 174.844 355.036 180.06 353.552C182.645 352.818 185.179 351.838 187.789 351.314C189.53 350.97 191.316 350.801 192.995 350.241C194.81 349.587 196.415 348.455 197.643 346.965C198.872 345.475 199.678 343.68 199.977 341.77C202.209 342.653 204.277 339.717 203.96 337.335C203.642 334.953 202.045 332.935 201.4 330.625C200.479 327.437 201.4 323.976 202.936 321.04C204.472 318.103 206.591 315.506 208.265 312.646C210.13 309.445 211.425 305.943 212.094 302.296C212.989 297.373 212.718 292.316 212.442 287.321L211.387 268.229C211.193 264.732 210.973 261.123 209.437 257.961C207.753 254.516 204.682 251.99 201.615 249.696C197.091 246.243 192.345 243.091 187.411 240.26C184.227 238.473 184.452 239.166 181.918 241.286C179.955 242.957 177.575 244.058 175.033 244.469Z" fill="#3F3D56"/>
<path d="M218.062 297.589C214.443 300.453 210.778 303.359 207.993 307.045C204.63 311.527 202.721 316.938 202.526 322.544C202.494 325.168 202.677 327.79 203.074 330.383C203.622 334.619 204.61 339.337 208.167 341.678C210.409 343.151 213.491 343.521 215.022 345.728C215.503 346.421 215.784 347.268 216.347 347.879C217.371 348.988 218.968 349.229 220.442 349.312C222.645 349.436 224.855 349.367 227.046 349.106C229.549 348.803 232.093 348.254 234.57 348.726C239.392 349.635 242.991 354.199 247.879 354.81C251.939 355.323 255.742 352.957 259.141 350.703C262.647 348.377 266.307 345.887 268.206 342.124C270.054 338.469 269.952 334.167 269.808 330.065C269.65 325.511 269.486 320.901 268.273 316.507C267.896 315.356 267.606 314.179 267.408 312.985C267.044 309.905 268.431 306.876 269.455 303.929C271.047 299.447 271.743 293.923 268.58 290.381C267.244 288.882 265.386 287.958 263.502 287.3C255.184 284.302 246.001 285.442 237.468 286.787C229.324 288.024 224.45 292.542 218.062 297.589Z" fill="#3F3D56"/>
<path d="M288.6 279.846C285.303 284.811 281.996 289.811 279.616 295.248C277.992 299.194 276.625 303.241 275.521 307.363C272.235 318.755 268.974 330.394 262.412 340.256C261.47 341.673 260.426 343.146 260.328 344.845C260.236 346.437 260.994 347.926 261.726 349.343C263.261 352.341 264.869 355.37 267.06 357.947C269.25 360.524 271.871 362.475 274.513 364.467C279.995 368.574 286.086 372.927 292.94 372.619C294.358 372.553 295.873 372.224 296.82 371.161C297.767 370.099 297.901 368.63 297.732 367.265C297.22 363.04 294.046 359.718 291.169 356.586C288.292 353.455 285.4 349.794 285.631 345.523C285.81 341.996 288.113 338.988 290.32 336.236C292.843 333.084 295.372 329.937 297.752 326.677C308.046 312.585 315.479 296.562 321.37 280.118C323.853 273.177 326.11 265.887 325.337 258.556C319.707 257.17 308.445 252.54 303.69 257.319C300.808 260.215 298.771 264.506 296.524 267.92L288.6 279.846Z" fill="#FBBEBE"/>
<path d="M336.143 231.645C332.576 237.885 329.784 244.541 327.83 251.462C327.354 253.135 326.929 254.901 327.293 256.595C327.687 258.413 328.921 259.907 329.852 261.509C330.784 263.11 331.439 265.138 330.595 266.791C326.602 267.104 322.645 266.011 318.785 264.928L306.684 261.539C305.682 261.346 304.741 260.909 303.946 260.266C302.543 258.936 302.651 256.703 302.922 254.793C305.292 239.156 312.904 224.74 315.755 209.19C316.17 206.946 316.605 204.462 318.386 203.029C323.505 198.974 335.094 202.408 337.746 208.281C340.709 214.801 339.496 225.787 336.143 231.645Z" fill="#519832"/>
<path d="M271.365 178.202C270.909 178.438 270.397 178.715 270.259 179.198C270.228 179.461 270.255 179.727 270.338 179.978C270.422 180.229 270.559 180.459 270.74 180.651L275.905 187.941C280.998 195.128 286.102 202.362 291.993 208.917C296.441 213.864 301.312 218.409 306.551 222.501C308.026 223.651 309.597 224.848 310.319 226.578C307.1 217.018 307.672 206.582 311.916 197.433C313.605 193.839 315.837 190.508 317.593 186.934C317.758 186.738 317.871 186.502 317.919 186.25C317.967 185.997 317.949 185.736 317.867 185.493C317.785 185.249 317.642 185.031 317.451 184.859C317.261 184.687 317.029 184.567 316.779 184.511C312.305 182.201 307.411 180.805 302.958 178.453C299.462 176.605 296.303 174.203 293.166 171.836C290.366 169.726 286.639 165.999 283.184 165.111C279.452 164.146 279.601 167.56 278.398 170.409C277.014 173.739 274.531 176.491 271.365 178.202Z" fill="#FBBEBE"/>
<path opacity="0.1" d="M271.365 178.202C270.909 178.438 270.397 178.715 270.259 179.198C270.228 179.461 270.255 179.727 270.338 179.978C270.422 180.229 270.559 180.459 270.74 180.651L275.905 187.941C280.998 195.128 286.102 202.362 291.993 208.917C296.441 213.864 301.312 218.409 306.551 222.501C308.026 223.651 309.597 224.848 310.319 226.578C307.1 217.018 307.672 206.582 311.916 197.433C313.605 193.839 315.837 190.508 317.593 186.934C317.758 186.738 317.871 186.502 317.919 186.25C317.967 185.997 317.949 185.736 317.867 185.493C317.785 185.249 317.642 185.031 317.451 184.859C317.261 184.687 317.029 184.567 316.779 184.511C312.305 182.201 307.411 180.805 302.958 178.453C299.462 176.605 296.303 174.203 293.166 171.836C290.366 169.726 286.639 165.999 283.184 165.111C279.452 164.146 279.601 167.56 278.398 170.409C277.014 173.739 274.531 176.491 271.365 178.202Z" fill="black"/>
<path d="M303.035 207.254C300.695 204.605 297.537 202.854 294.768 200.657C290.785 197.495 287.637 193.419 284.597 189.337C279.017 181.826 273.392 172.627 276.171 163.668C273.218 163.381 270.668 165.814 269.276 168.437C267.884 171.061 267.167 174.049 265.432 176.456C262.796 180.117 258.312 181.821 254.135 183.495C244.953 187.18 236.082 191.601 227.609 196.714C224.205 198.768 220.816 200.97 218.216 203.979C215.431 207.187 213.686 211.166 211.321 214.683C206.714 221.598 199.711 226.788 191.941 229.725C189.381 230.7 186.638 231.46 184.35 233.01C179.446 236.332 177.403 242.955 178.565 248.776C179.727 254.598 183.684 259.557 188.44 263.079C193.195 266.601 198.611 268.68 204.098 270.734C208.698 272.428 213.327 274.043 217.985 275.58C221.413 276.77 224.917 277.723 228.474 278.434C235.021 279.641 241.752 279.343 248.371 280.077C254.421 280.745 260.364 282.28 266.44 282.706C272.516 283.132 278.951 282.321 283.901 278.773C287.837 275.955 290.458 271.699 292.879 267.479C299.164 256.598 304.778 245.341 309.689 233.77C311.138 230.346 324.58 210.951 321.232 208.445C304.376 195.831 309.971 215.874 308.363 214.334C306.214 212.27 304.98 209.457 303.035 207.254Z" fill="#519832"/>
<path d="M282.155 195.652C278.536 188.351 276.089 180.538 273.658 172.765C272.987 170.609 272.312 168.278 273.033 166.143C273.903 163.576 276.688 161.384 275.869 158.812C269.358 160.865 261.797 164.084 260.513 170.814C260.231 172.283 260.282 173.848 259.601 175.173C258.276 177.771 254.897 178.325 252.026 178.767C243.672 180.107 235.369 183.485 229.646 189.732C228.684 190.759 227.778 191.925 226.575 192.695C225.705 193.209 224.779 193.622 223.816 193.927C218.216 195.944 212.457 198.46 208.853 203.209C206.995 205.652 205.808 208.584 203.735 210.853C200.929 213.933 196.799 215.473 193.763 218.343C191.716 220.253 190.257 222.676 188.905 225.125C183.705 234.551 179.891 245.604 182.65 256.02C184.088 261.467 187.257 266.318 188.962 271.688C191.311 279.004 191.081 287.347 195.488 293.635C198.268 297.588 202.567 300.202 206.97 302.173C216.765 306.544 227.526 308.281 238.195 307.214C242.15 306.753 246.08 306.088 249.968 305.222C259.248 303.302 268.626 301.213 277.057 296.87C291.435 289.462 301.781 276.222 311.66 263.387C313.539 260.943 315.433 258.479 316.779 255.686C318.094 253.022 318.888 250.137 319.773 247.303C322.768 237.749 326.981 228.236 326.586 218.235C326.602 217.038 326.367 215.85 325.895 214.749C325.496 213.928 324.872 213.209 324.518 212.383C323.894 210.904 324.176 209.195 323.735 207.649C322.512 203.337 316.861 202.516 312.387 202.552L310.954 227.856C310.733 231.655 310.329 235.87 307.509 238.416C306.302 239.457 304.796 240.086 303.209 240.21C301.622 240.335 300.037 239.949 298.684 239.109C295.674 237.153 295.249 233.739 295.27 230.469C295.3 226.362 294.967 222.599 293.662 218.661C290.959 210.494 285.953 203.327 282.155 195.652Z" fill="#192534"/>
<path d="M283.936 267.761C301.76 276.822 319.686 285.95 335.637 298.015C339.322 300.797 342.905 303.744 346.801 306.229C357.965 313.344 371.816 316.809 380.431 326.872C382.243 328.982 383.779 331.354 385.868 333.181C387.68 334.674 389.706 335.885 391.877 336.775C398.798 339.838 406.293 341.38 413.857 341.298C415.838 341.272 417.876 341.123 419.657 340.271C424.453 337.94 425.544 331.697 426.03 326.374C426.194 324.572 426.23 322.446 424.817 321.327C424.054 320.727 423.046 320.573 422.088 320.424C406.522 317.959 392.159 310.444 379.152 301.516C366.145 292.588 354.223 282.167 341.395 272.982C336.886 269.753 332.268 266.678 327.651 263.603L312.709 253.653C304.806 248.391 296.483 242.97 287.043 241.979C286.507 241.886 285.956 241.923 285.436 242.087C284.607 242.41 284.146 243.273 283.742 244.063C280.973 249.474 277.599 254.388 274.205 259.398C272.388 262.078 272.184 262.771 275.316 264.203C278.137 265.497 281.126 266.334 283.936 267.761Z" fill="#FBBEBE"/>
<path d="M318.959 417.273C319.163 417.273 319.358 417.192 319.502 417.048C319.646 416.903 319.727 416.707 319.727 416.503C319.727 416.299 319.646 416.103 319.502 415.958C319.358 415.814 319.163 415.733 318.959 415.733C318.756 415.733 318.561 415.814 318.417 415.958C318.273 416.103 318.192 416.299 318.192 416.503C318.192 416.707 318.273 416.903 318.417 417.048C318.561 417.192 318.756 417.273 318.959 417.273Z" fill="black"/>
<path d="M324.559 212.855C351.6 212.855 373.521 190.87 373.521 163.75C373.521 136.63 351.6 114.646 324.559 114.646C297.519 114.646 275.598 136.63 275.598 163.75C275.598 190.87 297.519 212.855 324.559 212.855Z" fill="#FBBEBE"/>
<path d="M286.076 182.9C286.946 178.49 291.993 176.262 296.462 175.964C300.984 175.72 305.49 176.676 309.527 178.734C313.564 180.792 316.988 183.881 319.456 187.689C320.491 184.937 321.189 182.068 321.534 179.147L329.724 179.758C330.639 179.9 331.573 179.815 332.448 179.511C333.502 179.039 334.152 177.971 334.7 176.944C338.283 170.235 340.679 162 347.405 158.463V167.704C349.246 167.344 350.981 166.565 352.475 165.427C353.968 164.288 355.181 162.821 356.02 161.137C356.482 163.695 357.216 166.196 358.211 168.597C358.374 168.997 358.605 169.439 359.019 169.541C359.222 169.556 359.425 169.528 359.616 169.458C359.806 169.388 359.98 169.278 360.125 169.136C363.261 166.749 366.099 163.991 368.576 160.922L378.302 177.833C383.921 163.602 384.228 147.814 379.166 133.374C374.105 118.934 364.015 106.813 350.752 99.2392C348.504 97.9399 346.157 96.819 343.735 95.8868C337.403 93.4945 330.579 92.7295 323.827 92.2675C314.23 91.6104 304.099 91.636 295.674 96.2513C291.144 98.7309 287.381 102.386 283.747 106.062C278.833 111.021 273.919 116.263 271.303 122.747C269.496 127.224 268.877 132.075 268.329 136.87C267.996 139.771 267.689 142.769 268.513 145.567C269.087 147.502 270.167 149.242 270.894 151.127C272.102 154.258 272.291 157.677 272.757 161.004C273.79 168.356 276.184 175.449 279.816 181.919C280.584 183.29 281.566 184.748 283.097 185.097C284.627 185.446 286.465 183.752 285.656 182.417" fill="#192534"/>
<path d="M286.076 182.9C286.946 178.49 291.993 176.262 296.462 175.964C300.984 175.72 305.49 176.676 309.527 178.734C313.564 180.792 316.988 183.881 319.456 187.689C320.491 184.937 321.189 182.068 321.534 179.147L329.724 179.758C330.639 179.9 331.573 179.815 332.448 179.511C333.502 179.039 334.152 177.971 334.7 176.944C338.283 170.235 340.679 162 347.405 158.463V167.704C349.246 167.344 350.981 166.565 352.475 165.427C353.968 164.288 355.181 162.821 356.02 161.137C356.482 163.695 357.216 166.196 358.211 168.597C358.374 168.997 358.605 169.439 359.019 169.541C359.222 169.556 359.425 169.528 359.616 169.458C359.806 169.388 359.98 169.278 360.125 169.136C363.261 166.749 366.099 163.991 368.576 160.922L378.302 177.833C383.921 163.602 384.228 147.814 379.166 133.374C374.105 118.934 364.015 106.813 350.752 99.2392C348.504 97.9399 346.157 96.819 343.735 95.8868C337.403 93.4945 330.579 92.7295 323.827 92.2675C314.23 91.6104 304.099 91.636 295.674 96.2513C291.144 98.7309 287.381 102.386 283.747 106.062C278.833 111.021 273.919 116.263 271.303 122.747C269.496 127.224 268.877 132.075 268.329 136.87C267.996 139.771 267.689 142.769 268.513 145.567C269.087 147.502 270.167 149.242 270.894 151.127C272.102 154.258 272.291 157.677 272.757 161.004C273.79 168.356 276.184 175.449 279.816 181.919C280.584 183.29 281.566 184.748 283.097 185.097C284.627 185.446 286.465 183.752 285.656 182.417" stroke="black" stroke-miterlimit="10"/>
<path d="M229.882 230.028C231.857 235.475 236.823 239.171 241.532 242.539L253.817 251.328C257.083 253.664 260.436 256.087 262.56 259.496C259.453 260.677 258.035 264.681 259.054 267.854C260.072 271.027 262.995 273.301 266.179 274.328C269.363 275.354 272.741 275.318 276.064 275.128C279.877 274.918 283.87 274.456 287.018 272.284L280.102 268.013C278.28 266.878 276.186 265.071 276.852 263.033L284.146 262.961C284.914 262.961 285.748 262.925 286.358 262.448C286.967 261.971 287.177 261.236 287.433 260.538C288.517 257.715 290.369 255.253 292.777 253.431C295.185 251.609 298.054 250.5 301.059 250.23C302.861 250.096 304.934 250.173 306.178 248.828C306.986 247.935 307.161 246.651 307.304 245.455C307.575 243.176 307.841 240.835 307.391 238.601C306.94 236.368 305.64 234.15 303.552 233.211C302.016 232.513 300.24 232.58 298.561 232.354C290.837 231.327 285.482 224.304 281.336 217.686C277.19 211.069 272.742 203.748 265.35 201.284C263.042 200.591 260.649 200.223 258.24 200.19C252.911 199.97 247.424 200.406 242.571 202.624C233.526 206.756 226.36 220.335 229.882 230.028Z" fill="#519832"/>
<path opacity="0.1" d="M378.348 168.694L368.622 151.783C366.146 154.854 363.309 157.612 360.171 159.998C360.027 160.142 359.854 160.253 359.663 160.324C359.472 160.394 359.268 160.423 359.065 160.408C358.651 160.306 358.42 159.864 358.257 159.464C357.262 157.061 356.528 154.559 356.066 151.999C355.228 153.684 354.016 155.152 352.522 156.292C351.028 157.431 349.293 158.211 347.451 158.57V149.329C340.725 152.877 338.35 161.112 334.746 167.811C334.198 168.838 333.548 169.89 332.494 170.378C331.619 170.682 330.685 170.766 329.77 170.625L321.58 170.014C321.235 172.935 320.537 175.804 319.502 178.556C317.034 174.748 313.61 171.659 309.573 169.601C305.536 167.542 301.03 166.587 296.508 166.831C292.039 167.128 286.992 169.356 286.122 173.766L285.687 173.284C286.511 174.624 284.663 176.318 283.128 175.969C281.592 175.62 280.614 174.162 279.846 172.791C276.225 166.314 273.841 159.215 272.818 151.86C272.352 148.534 272.163 145.115 270.955 141.983C270.228 140.099 269.148 138.359 268.575 136.423C268.575 136.356 268.539 136.295 268.524 136.228C268.478 136.613 268.431 136.998 268.39 137.383C268.058 140.289 267.751 143.282 268.575 146.111C269.148 148.046 270.228 149.786 270.955 151.665C272.163 154.802 272.352 158.216 272.818 161.548C273.84 168.901 276.224 175.999 279.846 182.473C280.614 183.844 281.597 185.307 283.128 185.656C284.658 186.005 286.496 184.311 285.687 182.971L286.122 183.449C286.992 179.044 292.039 176.811 296.508 176.518C301.03 176.272 305.536 177.226 309.573 179.284C313.61 181.342 317.035 184.43 319.502 188.239C320.538 185.488 321.236 182.621 321.58 179.701L329.77 180.307C330.685 180.45 331.62 180.366 332.494 180.06C333.548 179.588 334.198 178.52 334.746 177.494C338.329 170.779 340.725 162.549 347.451 159.012V168.253C349.293 167.893 351.028 167.113 352.522 165.974C354.016 164.835 355.228 163.366 356.066 161.681C356.528 164.241 357.263 166.743 358.257 169.146C358.42 169.541 358.651 169.988 359.065 170.085C359.268 170.103 359.472 170.075 359.663 170.005C359.854 169.935 360.027 169.824 360.171 169.68C363.309 167.294 366.146 164.536 368.622 161.466L378.348 178.377C381.856 169.403 383.299 159.751 382.571 150.141C382.101 156.503 380.677 162.758 378.348 168.694Z" fill="black"/>
</g>
<defs>
<clipPath id="clip0_667_409">
<rect width="560" height="416.546" fill="white" transform="translate(0 0.726562)"/>
</clipPath>
</defs>
</svg>
